<svg width="220" height="204" viewBox="0 0 220 204" fill="none" xmlns="http://www.w3.org/2000/svg">
<path d="M56 38V6C56 4.4087 56.6321 2.88258 57.7574 1.75736C58.8826 0.63214 60.4087 0 62 0C63.5913 0 65.1174 0.63214 66.2426 1.75736C67.3679 2.88258 68 4.4087 68 6V38C68 39.5913 67.3679 41.1174 66.2426 42.2426C65.1174 43.3679 63.5913 44 62 44C60.4087 44 58.8826 43.3679 57.7574 42.2426C56.6321 41.1174 56 39.5913 56 38ZM94 44C95.5913 44 97.1174 43.3679 98.2426 42.2426C99.3679 41.1174 100 39.5913 100 38V6C100 4.4087 99.3679 2.88258 98.2426 1.75736C97.1174 0.63214 95.5913 0 94 0C92.4087 0 90.8826 0.63214 89.7574 1.75736C88.6321 2.88258 88 4.4087 88 6V38C88 39.5913 88.6321 41.1174 89.7574 42.2426C90.8826 43.3679 92.4087 44 94 44ZM126 44C127.591 44 129.117 43.3679 130.243 42.2426C131.368 41.1174 132 39.5913 132 38V6C132 4.4087 131.368 2.88258 130.243 1.75736C129.117 0.63214 127.591 0 126 0C124.409 0 122.883 0.63214 121.757 1.75736C120.632 2.88258 120 4.4087 120 6V38C120 39.5913 120.632 41.1174 121.757 42.2426C122.883 43.3679 124.409 44 126 44ZM220 102V110C220.004 119.897 216.146 129.405 209.247 136.502C202.349 143.599 192.953 147.724 183.06 148C177.172 165.376 166.356 180.664 151.93 192H182C183.591 192 185.117 192.632 186.243 193.757C187.368 194.883 188 196.409 188 198C188 199.591 187.368 201.117 186.243 202.243C185.117 203.368 183.591 204 182 204H6C4.4087 204 2.88258 203.368 1.75736 202.243C0.63214 201.117 0 199.591 0 198C0 196.409 0.63214 194.883 1.75736 193.757C2.88258 192.632 4.4087 192 6 192H36.07C24.8564 183.193 15.785 171.959 9.53754 159.142C3.29012 146.325 0.0292358 132.259 0 118V70C0 68.4087 0.63214 66.8826 1.75736 65.7574C2.88258 64.6321 4.4087 64 6 64H182C192.078 64 201.744 68.0036 208.87 75.1299C215.996 82.2563 220 91.9218 220 102ZM176 118V76H12V118C12.0317 133.475 16.4277 148.628 24.6831 161.718C32.9384 174.808 44.7184 185.303 58.67 192H129.33C143.282 185.303 155.062 174.808 163.317 161.718C171.572 148.628 175.968 133.475 176 118ZM208 102C207.998 96.1491 206.023 90.4698 202.394 85.8805C198.764 81.2912 193.693 78.0602 188 76.71V118C187.998 123.92 187.432 129.827 186.31 135.64C192.373 134.621 197.879 131.486 201.85 126.792C205.821 122.098 208 116.148 208 110V102Z" fill="black"/>
</svg>
